<svg xmlns="http://www.w3.org/2000/svg" viewBox="0 0 360 900">
  <defs><linearGradient id="bg" x2="0" y2="1"><stop stop-color="#163c32"/><stop offset="1" stop-color="#0a1715"/></linearGradient></defs>
  <path fill="url(#bg)" d="M0 0h360v900H0z"/>
  <path fill="#d1b875" d="M0 360h360v540H0z" opacity=".17"/>
  <path d="M180 70c-47 70-77 133-77 185a77 77 0 0 0 154 0c0-52-30-115-77-185z" fill="#d7c590" opacity=".82"/>
  <path d="M180 150c-26 40-43 75-43 104a43 43 0 0 0 86 0c0-29-17-64-43-104z" fill="#366f56"/>
  <path fill="#e2d7b6" d="M32 382h296v5H32zm0 20h296v2H32z"/>
  <path fill="none" stroke="#e2d7b6" stroke-width="2" opacity=".25" d="M44 530h272M64 560h232M84 590h192"/>
  <text x="28" y="538" fill="#f1e8d2" font-family="sans-serif" font-size="29" font-weight="700" letter-spacing="2">ЗЕЛЁНАЯ</text>
  <text x="28" y="576" fill="#f1e8d2" font-family="sans-serif" font-size="36" font-weight="700" letter-spacing="3">МИЛЯ</text>
  <text x="30" y="610" fill="#b6c59c" font-family="sans-serif" font-size="12" letter-spacing="4">ЧУДО РЯДОМ</text>
</svg>
