<svg xmlns="http://www.w3.org/2000/svg" viewBox="0 0 360 900">
  <defs><linearGradient id="bg" x2="0" y2="1"><stop stop-color="#1d5270"/><stop offset=".6" stop-color="#d85b46"/><stop offset="1" stop-color="#f0b75e"/></linearGradient></defs>
  <path fill="url(#bg)" d="M0 0h360v900H0z"/>
  <path fill="#ffe2a0" d="M40 96h280v203H40z"/>
  <path fill="#c65343" d="M23 112 180 25l157 87z"/>
  <path fill="#284759" d="M66 146h62v78H66zm166 0h62v78h-62z"/>
  <path fill="#fff0c4" d="M147 183h66v116h-66z"/>
  <path fill="#a7493f" d="M162 230h38v69h-38z"/>
  <path fill="#1b3645" d="M0 320h360v580H0z"/>
  <path d="m58 360 36 70m208-70-36 70M50 578h260" stroke="#eabf74" stroke-width="5" opacity=".8"/>
  <text x="28" y="542" fill="#fff4d9" font-family="sans-serif" font-size="38" font-weight="700" letter-spacing="4">ОДИН</text>
  <text x="28" y="586" fill="#fff4d9" font-family="sans-serif" font-size="42" font-weight="700" letter-spacing="4">ДОМА</text>
  <text x="30" y="622" fill="#f0c87d" font-family="sans-serif" font-size="12" letter-spacing="4">ПЛАН НА КАНИКУЛЫ</text>
</svg>
